%TF.GenerationSoftware,KiCad,Pcbnew,(6.0.0-rc1-343-g73b39e836d)*%
%TF.CreationDate,2021-12-12T21:31:48-07:00*%
%TF.ProjectId,Z18,5a31382e-6b69-4636-9164-5f7063625858,rev?*%
%TF.SameCoordinates,PX17f2fb4PY122ae10*%
%TF.FileFunction,Paste,Top*%
%TF.FilePolarity,Positive*%
%FSLAX46Y46*%
G04 Gerber Fmt 4.6, Leading zero omitted, Abs format (unit mm)*
G04 Created by KiCad (PCBNEW (6.0.0-rc1-343-g73b39e836d)) date 2021-12-12 21:31:48*
%MOMM*%
%LPD*%
G01*
G04 APERTURE LIST*
G04 Aperture macros list*
%AMRoundRect*
0 Rectangle with rounded corners*
0 $1 Rounding radius*
0 $2 $3 $4 $5 $6 $7 $8 $9 X,Y pos of 4 corners*
0 Add a 4 corners polygon primitive as box body*
4,1,4,$2,$3,$4,$5,$6,$7,$8,$9,$2,$3,0*
0 Add four circle primitives for the rounded corners*
1,1,$1+$1,$2,$3*
1,1,$1+$1,$4,$5*
1,1,$1+$1,$6,$7*
1,1,$1+$1,$8,$9*
0 Add four rect primitives between the rounded corners*
20,1,$1+$1,$2,$3,$4,$5,0*
20,1,$1+$1,$4,$5,$6,$7,0*
20,1,$1+$1,$6,$7,$8,$9,0*
20,1,$1+$1,$8,$9,$2,$3,0*%
G04 Aperture macros list end*
%ADD10RoundRect,0.200000X0.200000X0.275000X-0.200000X0.275000X-0.200000X-0.275000X0.200000X-0.275000X0*%
%ADD11RoundRect,0.150000X0.150000X-0.512500X0.150000X0.512500X-0.150000X0.512500X-0.150000X-0.512500X0*%
%ADD12RoundRect,0.225000X0.225000X0.250000X-0.225000X0.250000X-0.225000X-0.250000X0.225000X-0.250000X0*%
%ADD13R,1.800000X1.000000*%
%ADD14RoundRect,0.218750X0.218750X0.256250X-0.218750X0.256250X-0.218750X-0.256250X0.218750X-0.256250X0*%
%ADD15RoundRect,0.150000X-0.150000X0.512500X-0.150000X-0.512500X0.150000X-0.512500X0.150000X0.512500X0*%
%ADD16RoundRect,0.150000X-0.512500X-0.150000X0.512500X-0.150000X0.512500X0.150000X-0.512500X0.150000X0*%
%ADD17RoundRect,0.100000X-0.300000X0.600000X-0.300000X-0.600000X0.300000X-0.600000X0.300000X0.600000X0*%
%ADD18RoundRect,0.100000X-0.600000X-0.300000X0.600000X-0.300000X0.600000X0.300000X-0.600000X0.300000X0*%
%ADD19RoundRect,0.100000X-0.500000X-0.300000X0.500000X-0.300000X0.500000X0.300000X-0.500000X0.300000X0*%
%ADD20RoundRect,0.100000X-0.300000X0.500000X-0.300000X-0.500000X0.300000X-0.500000X0.300000X0.500000X0*%
%ADD21R,1.550000X1.200000*%
%ADD22R,1.800000X1.200000*%
%ADD23R,0.600000X0.450000*%
%ADD24RoundRect,0.200000X-0.200000X-0.275000X0.200000X-0.275000X0.200000X0.275000X-0.200000X0.275000X0*%
%ADD25R,0.600000X1.450000*%
%ADD26R,0.300000X1.450000*%
%ADD27RoundRect,0.225000X-0.250000X0.225000X-0.250000X-0.225000X0.250000X-0.225000X0.250000X0.225000X0*%
%ADD28RoundRect,0.150000X0.587500X0.150000X-0.587500X0.150000X-0.587500X-0.150000X0.587500X-0.150000X0*%
%ADD29RoundRect,0.225000X0.250000X-0.225000X0.250000X0.225000X-0.250000X0.225000X-0.250000X-0.225000X0*%
G04 APERTURE END LIST*
D10*
%TO.C,R7*%
X291450000Y-54525000D03*
X289800000Y-54525000D03*
%TD*%
%TO.C,R2*%
X177212500Y-88675000D03*
X175562500Y-88675000D03*
%TD*%
%TO.C,R4*%
X291337500Y-35718750D03*
X289687500Y-35718750D03*
%TD*%
D11*
%TO.C,U4*%
X289848222Y-12313500D03*
X290798222Y-12313500D03*
X291748222Y-12313500D03*
X291748222Y-10038500D03*
X290798222Y-10038500D03*
X289848222Y-10038500D03*
%TD*%
D12*
%TO.C,C3*%
X291287500Y-40798750D03*
X289737500Y-40798750D03*
%TD*%
D13*
%TO.C,Y1*%
X171640500Y-88729500D03*
X171640500Y-91229500D03*
%TD*%
D14*
%TO.C,D86*%
X291300000Y-26193750D03*
X289725000Y-26193750D03*
%TD*%
D15*
%TO.C,U3*%
X291343750Y-44143750D03*
X290393750Y-44143750D03*
X289443750Y-44143750D03*
X289443750Y-46418750D03*
X291343750Y-46418750D03*
%TD*%
D16*
%TO.C,U1*%
X289375000Y-37308750D03*
X289375000Y-38258750D03*
X289375000Y-39208750D03*
X291650000Y-39208750D03*
X291650000Y-37308750D03*
%TD*%
D17*
%TO.C,U2*%
X155466222Y-92106000D03*
X156736222Y-92106000D03*
X158006222Y-92106000D03*
X159276222Y-92106000D03*
X160546222Y-92106000D03*
X161816222Y-92106000D03*
X163086222Y-92106000D03*
X164356222Y-92106000D03*
X165626222Y-92106000D03*
X166896222Y-92106000D03*
D18*
X168996222Y-90546000D03*
D19*
X167396222Y-89916000D03*
D18*
X168996222Y-89276000D03*
D19*
X167396222Y-88646000D03*
D18*
X168996222Y-88006000D03*
D19*
X167396222Y-87376000D03*
D18*
X168996222Y-86736000D03*
D19*
X167396222Y-86106000D03*
D18*
X168996222Y-85466000D03*
D19*
X167396222Y-84836000D03*
D18*
X168996222Y-84196000D03*
D19*
X167396222Y-83566000D03*
D18*
X168996222Y-82926000D03*
D19*
X167396222Y-82296000D03*
D18*
X168996222Y-81656000D03*
D17*
X166896222Y-80106000D03*
X165626222Y-80106000D03*
D20*
X164991222Y-81706000D03*
D17*
X164356222Y-80106000D03*
D20*
X163721222Y-81706000D03*
D17*
X163086222Y-80106000D03*
D20*
X162451222Y-81706000D03*
D17*
X161816222Y-80106000D03*
D20*
X161181222Y-81706000D03*
D17*
X160546222Y-80106000D03*
D20*
X159911222Y-81706000D03*
D17*
X159276222Y-80106000D03*
D20*
X158641222Y-81706000D03*
D17*
X158006222Y-80106000D03*
D20*
X157371222Y-81706000D03*
D17*
X156736222Y-80106000D03*
D20*
X156101222Y-81706000D03*
D17*
X155466222Y-80106000D03*
%TD*%
D14*
%TO.C,D83*%
X291300000Y-30956250D03*
X289725000Y-30956250D03*
%TD*%
D21*
%TO.C,J2*%
X85083500Y-85064500D03*
X85083500Y-83464500D03*
D22*
X88958500Y-86064500D03*
X88958500Y-82464500D03*
%TD*%
D23*
%TO.C,D85*%
X289575000Y-52325000D03*
X291675000Y-52325000D03*
%TD*%
D10*
%TO.C,R9*%
X291337500Y-23812500D03*
X289687500Y-23812500D03*
%TD*%
D24*
%TO.C,R3*%
X175562500Y-86875000D03*
X177212500Y-86875000D03*
%TD*%
D25*
%TO.C,J4*%
X293762472Y-6426250D03*
X292962472Y-6426250D03*
D26*
X291762472Y-6426250D03*
X290762472Y-6426250D03*
X290262472Y-6426250D03*
X289262472Y-6426250D03*
D25*
X288062472Y-6426250D03*
X287262472Y-6426250D03*
X287262472Y-6426250D03*
X288062472Y-6426250D03*
D26*
X288762472Y-6426250D03*
X289762472Y-6426250D03*
X291262472Y-6426250D03*
X292262472Y-6426250D03*
D25*
X292962472Y-6426250D03*
X293762472Y-6426250D03*
%TD*%
D10*
%TO.C,R1*%
X291337500Y-33337500D03*
X289687500Y-33337500D03*
%TD*%
D27*
%TO.C,C1*%
X173787500Y-86475000D03*
X173787500Y-88025000D03*
%TD*%
D28*
%TO.C,Q1*%
X291449997Y-50475000D03*
X291449997Y-48575000D03*
X289574997Y-49525000D03*
%TD*%
D29*
%TO.C,C4*%
X292893750Y-46018750D03*
X292893750Y-44468750D03*
%TD*%
D27*
%TO.C,C2*%
X173787500Y-89475000D03*
X173787500Y-91025000D03*
%TD*%
M02*
