M48
; DRILL file {KiCad (6.0.0-rc1-172-gb8b8c0d34c)} date Monday, December 06, 2021 at 10:24:15 PM
; FORMAT={-:-/ absolute / inch / decimal}
; #@! TF.CreationDate,2021-12-06T22:24:15-07:00
; #@! TF.GenerationSoftware,Kicad,Pcbnew,(6.0.0-rc1-172-gb8b8c0d34c)
; #@! TF.FileFunction,Plated,1,2,PTH
FMAT,2
INCH
; #@! TA.AperFunction,Plated,PTH,ViaDrill
T1C0.0150
; #@! TA.AperFunction,Plated,PTH,ViaDrill
T2C0.0157
; #@! TA.AperFunction,Plated,PTH,ViaDrill
T3C0.0197
; #@! TA.AperFunction,Plated,PTH,ComponentDrill
T4C0.0236
; #@! TA.AperFunction,Plated,PTH,ComponentDrill
T5C0.0394
; #@! TA.AperFunction,Plated,PTH,ComponentDrill
T6C0.0591
%
G90
G05
T1
X6.235Y-3.53
X6.285Y-3.51
X6.375Y-3.56
X6.435Y-3.55
X6.485Y-3.57
X6.6888Y-3.3152
X11.2672Y-0.2943
X11.3302Y-0.0817
X11.3512Y-0.13
X11.4483Y-0.5305
X11.4483Y-0.562
X11.525Y-0.13
X11.5507Y-0.0817
X11.6058Y-0.2943
T2
X6.9375Y-1.3125
X8.4375Y-1.3125
X10.5125Y-1.2825
T3
X0.5625Y-3.0
X1.125Y-0.75
X1.125Y-1.5
X1.875Y-0.75
X1.875Y-1.5
X1.9688Y-3.2812
X2.0625Y-2.25
X2.25Y-3.0
X2.625Y-0.75
X2.625Y-1.5
X2.8125Y-2.25
X3.375Y-0.75
X3.375Y-1.5
X3.4605Y-3.0317
X3.5625Y-2.25
X3.5625Y-2.4375
X3.9375Y-2.625
X4.125Y-0.75
X4.125Y-1.5
X4.3125Y-2.25
X4.6875Y-2.625
X4.875Y-0.75
X4.875Y-1.5
X5.0625Y-2.25
X5.4375Y-3.0
X5.625Y-0.75
X5.625Y-1.5
X5.8125Y-2.25
X6.0704Y-3.0896
X6.157Y-3.5069
X6.2121Y-3.3179
X6.3381Y-2.7982
X6.3581Y-2.7168
X6.3653Y-0.599
X6.375Y-0.75
X6.375Y-1.5
X6.4555Y-2.1703
X6.4605Y-2.2837
X6.4641Y-3.31
X6.5113Y-3.5069
X6.5263Y-1.3514
X6.6272Y-3.0559
X6.7912Y-3.2159
X6.8893Y-2.9242
X6.9375Y-1.5938
X6.9375Y-2.625
X6.9601Y-3.31
X7.0704Y-3.3524
X7.0861Y-3.2159
X7.125Y-0.75
X7.125Y-1.5
X7.2751Y-3.6644
X7.3125Y-2.25
X7.3145Y-3.4675
X7.785Y-2.9
X7.785Y-3.16
X7.875Y-0.75
X7.875Y-1.5
X8.0625Y-2.25
X8.625Y-0.75
X8.625Y-1.5
X8.625Y-3.0
X8.8125Y-2.25
X9.375Y-0.75
X9.375Y-1.5
X9.5625Y-2.25
X9.75Y-3.0
X10.125Y-1.5
X10.6875Y-3.5625
X11.1562Y-1.5
X11.1562Y-2.25
X11.25Y-0.75
X11.25Y-3.0
X11.4405Y-2.8612
X11.4483Y-3.0502
X11.455Y-3.33
X11.515Y-2.9362
X11.5312Y-2.7188
X11.5364Y-1.6663
X11.5758Y-2.123
X11.578Y-2.1981
X11.625Y-0.9375
X11.665Y-3.26
X12.375Y-0.75
X12.375Y-1.5
X12.375Y-2.25
X12.375Y-3.0
X13.125Y-1.5
X13.125Y-2.25
X13.875Y-0.75
X13.875Y-1.5
X13.875Y-2.25
X13.875Y-3.0
X14.5312Y-1.4062
X14.5312Y-2.25
T4
X6.1457Y-3.2168
X6.1957Y-3.2168
X6.2457Y-3.2168
X6.2957Y-3.2168
X6.3457Y-3.2168
X6.3957Y-3.2168
X6.4457Y-3.2168
X6.4957Y-3.2168
X6.5904Y-3.24
X6.5904Y-3.29
X6.5904Y-3.34
X6.5904Y-3.39
X6.5904Y-3.44
X6.5904Y-3.49
X6.5904Y-3.54
T5
X3.3962Y-3.1994
X3.3962Y-3.4356
X6.1875Y-2.4312
X6.1875Y-2.5312
X6.1875Y-2.6313
X6.1875Y-2.7312
T6
X0.225Y-0.275
X0.3187Y-1.775
X0.3187Y-3.275
X0.4125Y-1.025
X0.475Y-0.175
X0.5062Y-1.775
X0.5687Y-1.675
X0.5687Y-3.175
X0.6625Y-0.925
X0.7438Y-2.825
X0.7562Y-1.675
X0.975Y-0.275
X0.9938Y-2.725
X1.225Y-0.175
X1.2562Y-3.275
X1.35Y-1.025
X1.5062Y-3.175
X1.5375Y-1.775
X1.6Y-0.925
X1.725Y-0.275
X1.7875Y-1.675
X1.9125Y-2.525
X1.975Y-0.175
X2.1Y-1.025
X2.1625Y-2.425
X2.1938Y-3.275
X2.2875Y-1.775
X2.35Y-0.925
X2.4438Y-3.175
X2.475Y-0.275
X2.5375Y-1.675
X2.6625Y-2.525
X2.725Y-0.175
X2.85Y-1.025
X2.9125Y-2.425
X3.0375Y-1.775
X3.1Y-0.925
X3.225Y-0.275
X3.2875Y-1.675
X3.4125Y-2.525
X3.475Y-0.175
X3.6Y-1.025
X3.6625Y-2.425
X3.7875Y-1.775
X3.85Y-0.925
X3.975Y-0.275
X4.0375Y-1.675
X4.1625Y-2.525
X4.225Y-0.175
X4.35Y-1.025
X4.4125Y-2.425
X4.5375Y-1.775
X4.6Y-0.925
X4.725Y-0.275
X4.7875Y-1.675
X4.9125Y-2.525
X4.975Y-0.175
X5.0562Y-3.575
X5.1Y-1.025
X5.1625Y-2.425
X5.2875Y-1.775
X5.3062Y-3.475
X5.35Y-0.925
X5.475Y-0.275
X5.5375Y-1.675
X5.6625Y-2.525
X5.725Y-0.175
X5.85Y-1.025
X5.9125Y-2.425
X6.0375Y-1.775
X6.1Y-0.925
X6.225Y-0.275
X6.2875Y-1.675
X6.4125Y-2.525
X6.475Y-0.175
X6.6Y-1.025
X6.6625Y-2.425
X6.7875Y-1.775
X6.85Y-0.925
X6.975Y-0.275
X7.0375Y-1.675
X7.1625Y-2.525
X7.225Y-0.175
X7.35Y-1.025
X7.4125Y-2.425
X7.5375Y-1.775
X7.6Y-0.925
X7.725Y-0.275
X7.725Y-3.275
X7.7875Y-1.675
X7.9125Y-2.525
X7.9125Y-3.275
X7.975Y-0.175
X7.975Y-3.175
X8.1Y-1.025
X8.1625Y-2.425
X8.1625Y-3.175
X8.2875Y-1.775
X8.35Y-0.925
X8.475Y-0.275
X8.475Y-3.275
X8.5375Y-1.675
X8.6625Y-2.525
X8.725Y-0.175
X8.725Y-3.175
X8.85Y-1.025
X8.9125Y-2.425
X9.0375Y-1.775
X9.0375Y-3.275
X9.1Y-0.925
X9.225Y-0.275
X9.225Y-3.275
X9.2875Y-1.675
X9.2875Y-3.175
X9.475Y-0.175
X9.475Y-3.175
X9.6Y-1.025
X9.6937Y-2.525
X9.85Y-0.925
X9.9437Y-2.425
X10.1625Y-3.4625
X10.2562Y-1.775
X10.35Y-0.275
X10.4125Y-3.3625
X10.5062Y-1.675
X10.5375Y-1.025
X10.6Y-0.175
X10.7875Y-0.925
X10.9125Y-2.7125
X10.9125Y-3.4625
X11.1625Y-2.6125
X11.1625Y-3.3625
X11.6625Y-3.4625
X11.85Y-0.275
X11.85Y-1.025
X11.85Y-1.775
X11.85Y-2.525
X11.9125Y-3.3625
X12.1Y-0.175
X12.1Y-0.925
X12.1Y-1.675
X12.1Y-2.425
X12.6Y-0.275
X12.6Y-1.025
X12.6Y-1.775
X12.6Y-2.525
X12.6Y-3.275
X12.85Y-0.175
X12.85Y-0.925
X12.85Y-1.675
X12.85Y-2.425
X12.85Y-3.175
X13.35Y-0.275
X13.35Y-1.025
X13.35Y-1.775
X13.35Y-2.525
X13.35Y-3.275
X13.6Y-0.175
X13.6Y-0.925
X13.6Y-1.675
X13.6Y-2.425
X13.6Y-3.175
X14.1Y-0.275
X14.35Y-0.175
X14.35Y-1.35
X14.35Y-2.85
X14.45Y-1.6
X14.45Y-3.1
T4
G00X11.2674Y-0.0642
M15
G01X11.2674Y-0.0406
M16
G05
G00X11.2674Y-0.2386
M15
G01X11.2674Y-0.1953
M16
G05
G00X11.6076Y-0.0642
M15
G01X11.6076Y-0.0406
M16
G05
G00X11.6076Y-0.2386
M15
G01X11.6076Y-0.1953
M16
G05
T0
M30
