%TF.GenerationSoftware,KiCad,Pcbnew,(6.0.0-rc1-172-gb8b8c0d34c)*%
%TF.CreationDate,2021-12-06T22:24:08-07:00*%
%TF.ProjectId,Z18,5a31382e-6b69-4636-9164-5f7063625858,rev?*%
%TF.SameCoordinates,PX17f2fb4PY122ae10*%
%TF.FileFunction,Paste,Bot*%
%TF.FilePolarity,Positive*%
%FSLAX46Y46*%
G04 Gerber Fmt 4.6, Leading zero omitted, Abs format (unit mm)*
G04 Created by KiCad (PCBNEW (6.0.0-rc1-172-gb8b8c0d34c)) date 2021-12-06 22:24:08*
%MOMM*%
%LPD*%
G01*
G04 APERTURE LIST*
G04 Aperture macros list*
%AMRoundRect*
0 Rectangle with rounded corners*
0 $1 Rounding radius*
0 $2 $3 $4 $5 $6 $7 $8 $9 X,Y pos of 4 corners*
0 Add a 4 corners polygon primitive as box body*
4,1,4,$2,$3,$4,$5,$6,$7,$8,$9,$2,$3,0*
0 Add four circle primitives for the rounded corners*
1,1,$1+$1,$2,$3*
1,1,$1+$1,$4,$5*
1,1,$1+$1,$6,$7*
1,1,$1+$1,$8,$9*
0 Add four rect primitives between the rounded corners*
20,1,$1+$1,$2,$3,$4,$5,0*
20,1,$1+$1,$4,$5,$6,$7,0*
20,1,$1+$1,$6,$7,$8,$9,0*
20,1,$1+$1,$8,$9,$2,$3,0*%
G04 Aperture macros list end*
%ADD10R,0.900000X1.200000*%
%ADD11RoundRect,0.200000X0.275000X-0.200000X0.275000X0.200000X-0.275000X0.200000X-0.275000X-0.200000X0*%
%ADD12R,1.200000X0.900000*%
%ADD13R,1.524000X0.600000*%
%ADD14R,0.700000X1.200000*%
%ADD15RoundRect,0.200000X-0.200000X-0.275000X0.200000X-0.275000X0.200000X0.275000X-0.200000X0.275000X0*%
%ADD16RoundRect,0.200000X0.200000X0.275000X-0.200000X0.275000X-0.200000X-0.275000X0.200000X-0.275000X0*%
%ADD17RoundRect,0.225000X0.250000X-0.225000X0.250000X0.225000X-0.250000X0.225000X-0.250000X-0.225000X0*%
%ADD18R,0.900000X1.700000*%
G04 APERTURE END LIST*
D10*
%TO.C,D31*%
X249300000Y-33337500D03*
X246000000Y-33337500D03*
%TD*%
%TO.C,D43*%
X139762500Y-52387500D03*
X136462500Y-52387500D03*
%TD*%
D11*
%TO.C,R8*%
X291282222Y-3619000D03*
X291282222Y-1969000D03*
%TD*%
D10*
%TO.C,D71*%
X13556250Y-90487500D03*
X10256250Y-90487500D03*
%TD*%
%TO.C,D30*%
X230250000Y-33337500D03*
X226950000Y-33337500D03*
%TD*%
D12*
%TO.C,D36*%
X357187500Y-39750000D03*
X357187500Y-36450000D03*
%TD*%
D10*
%TO.C,D62*%
X187387500Y-71437500D03*
X184087500Y-71437500D03*
%TD*%
%TO.C,D78*%
X263587500Y-95250000D03*
X260287500Y-95250000D03*
%TD*%
%TO.C,D80*%
X301687500Y-95250000D03*
X298387500Y-95250000D03*
%TD*%
%TO.C,D44*%
X158812500Y-52387500D03*
X155512500Y-52387500D03*
%TD*%
%TO.C,D64*%
X225487500Y-71437500D03*
X222187500Y-71437500D03*
%TD*%
%TO.C,D1*%
X11175000Y-14287500D03*
X7875000Y-14287500D03*
%TD*%
%TO.C,D23*%
X96900000Y-33337500D03*
X93600000Y-33337500D03*
%TD*%
%TO.C,D81*%
X325500000Y-90487500D03*
X322200000Y-90487500D03*
%TD*%
%TO.C,D34*%
X325500000Y-33337500D03*
X322200000Y-33337500D03*
%TD*%
%TO.C,D33*%
X306450000Y-33337500D03*
X303150000Y-33337500D03*
%TD*%
%TO.C,D61*%
X168337500Y-71437500D03*
X165037500Y-71437500D03*
%TD*%
%TO.C,D7*%
X125475000Y-14287500D03*
X122175000Y-14287500D03*
%TD*%
%TO.C,D6*%
X106425000Y-14287500D03*
X103125000Y-14287500D03*
%TD*%
%TO.C,D27*%
X173100000Y-33337500D03*
X169800000Y-33337500D03*
%TD*%
D12*
%TO.C,D70*%
X357187500Y-77850000D03*
X357187500Y-74550000D03*
%TD*%
D10*
%TO.C,D41*%
X101662500Y-52387500D03*
X98362500Y-52387500D03*
%TD*%
%TO.C,D8*%
X144525000Y-14287500D03*
X141225000Y-14287500D03*
%TD*%
%TO.C,D28*%
X192150000Y-33337500D03*
X188850000Y-33337500D03*
%TD*%
%TO.C,D74*%
X129318750Y-80962500D03*
X132618750Y-80962500D03*
%TD*%
%TO.C,D4*%
X68325000Y-14287500D03*
X65025000Y-14287500D03*
%TD*%
%TO.C,D76*%
X220725000Y-90487500D03*
X217425000Y-90487500D03*
%TD*%
%TO.C,D21*%
X58800000Y-33337500D03*
X55500000Y-33337500D03*
%TD*%
%TO.C,D75*%
X201675000Y-90487500D03*
X198375000Y-90487500D03*
%TD*%
%TO.C,D77*%
X235012500Y-90487500D03*
X231712500Y-90487500D03*
%TD*%
%TO.C,D42*%
X120712500Y-52387500D03*
X117412500Y-52387500D03*
%TD*%
%TO.C,D52*%
X325500000Y-52387500D03*
X322200000Y-52387500D03*
%TD*%
%TO.C,D57*%
X92137500Y-71437500D03*
X88837500Y-71437500D03*
%TD*%
%TO.C,D10*%
X182625000Y-14287500D03*
X179325000Y-14287500D03*
%TD*%
%TO.C,D11*%
X201675000Y-14287500D03*
X198375000Y-14287500D03*
%TD*%
%TO.C,D5*%
X87375000Y-14287500D03*
X84075000Y-14287500D03*
%TD*%
%TO.C,D51*%
X306450000Y-52387500D03*
X303150000Y-52387500D03*
%TD*%
%TO.C,D48*%
X235012500Y-52387500D03*
X231712500Y-52387500D03*
%TD*%
%TO.C,D82*%
X344550000Y-90487500D03*
X341250000Y-90487500D03*
%TD*%
D13*
%TO.C,BATT1*%
X296720997Y-77338750D03*
X296720997Y-74338750D03*
X296720997Y-72838750D03*
D14*
X295620997Y-71488750D03*
X295620997Y-78688750D03*
X293320997Y-78688750D03*
X293320997Y-71488750D03*
%TD*%
D10*
%TO.C,D58*%
X111187500Y-71437500D03*
X107887500Y-71437500D03*
%TD*%
%TO.C,D38*%
X44512500Y-52387500D03*
X41212500Y-52387500D03*
%TD*%
%TO.C,D65*%
X251681250Y-71437500D03*
X248381250Y-71437500D03*
%TD*%
%TO.C,D22*%
X77850000Y-33337500D03*
X74550000Y-33337500D03*
%TD*%
%TO.C,D14*%
X268350000Y-14287500D03*
X265050000Y-14287500D03*
%TD*%
%TO.C,D16*%
X325500000Y-14287500D03*
X322200000Y-14287500D03*
%TD*%
%TO.C,D17*%
X344550000Y-14287500D03*
X341250000Y-14287500D03*
%TD*%
%TO.C,D37*%
X18318750Y-52387500D03*
X15018750Y-52387500D03*
%TD*%
%TO.C,D63*%
X206437500Y-71437500D03*
X203137500Y-71437500D03*
%TD*%
%TO.C,D54*%
X19781250Y-61912500D03*
X23081250Y-61912500D03*
%TD*%
%TO.C,D32*%
X273112500Y-33337500D03*
X269812500Y-33337500D03*
%TD*%
%TO.C,D47*%
X215962500Y-52387500D03*
X212662500Y-52387500D03*
%TD*%
%TO.C,D15*%
X306450000Y-14287500D03*
X303150000Y-14287500D03*
%TD*%
%TO.C,D50*%
X265968750Y-52387500D03*
X262668750Y-52387500D03*
%TD*%
D15*
%TO.C,R5*%
X292767222Y-3302000D03*
X294417222Y-3302000D03*
%TD*%
D10*
%TO.C,D40*%
X82612500Y-52387500D03*
X79312500Y-52387500D03*
%TD*%
%TO.C,D72*%
X37368750Y-90487500D03*
X34068750Y-90487500D03*
%TD*%
%TO.C,D35*%
X344550000Y-33337500D03*
X341250000Y-33337500D03*
%TD*%
%TO.C,D56*%
X73087500Y-71437500D03*
X69787500Y-71437500D03*
%TD*%
%TO.C,D39*%
X63562500Y-52387500D03*
X60262500Y-52387500D03*
%TD*%
%TO.C,D13*%
X239775000Y-14287500D03*
X236475000Y-14287500D03*
%TD*%
%TO.C,D20*%
X39750000Y-33337500D03*
X36450000Y-33337500D03*
%TD*%
%TO.C,D3*%
X49275000Y-14287500D03*
X45975000Y-14287500D03*
%TD*%
%TO.C,D29*%
X211200000Y-33337500D03*
X207900000Y-33337500D03*
%TD*%
%TO.C,D25*%
X135000000Y-33337500D03*
X131700000Y-33337500D03*
%TD*%
%TO.C,D68*%
X325500000Y-71437500D03*
X322200000Y-71437500D03*
%TD*%
%TO.C,D12*%
X220725000Y-14287500D03*
X217425000Y-14287500D03*
%TD*%
%TO.C,D60*%
X149287500Y-71437500D03*
X145987500Y-71437500D03*
%TD*%
%TO.C,D46*%
X196912500Y-52387500D03*
X193612500Y-52387500D03*
%TD*%
%TO.C,D24*%
X115950000Y-33337500D03*
X112650000Y-33337500D03*
%TD*%
%TO.C,D69*%
X344550000Y-71437500D03*
X341250000Y-71437500D03*
%TD*%
D16*
%TO.C,R6*%
X288321222Y-3302000D03*
X286671222Y-3302000D03*
%TD*%
D10*
%TO.C,D9*%
X163575000Y-14287500D03*
X160275000Y-14287500D03*
%TD*%
%TO.C,D73*%
X61181250Y-90487500D03*
X57881250Y-90487500D03*
%TD*%
%TO.C,D53*%
X344550000Y-52387500D03*
X341250000Y-52387500D03*
%TD*%
%TO.C,D26*%
X154050000Y-33337500D03*
X150750000Y-33337500D03*
%TD*%
%TO.C,D45*%
X177862500Y-52387500D03*
X174562500Y-52387500D03*
%TD*%
D17*
%TO.C,C5*%
X289782222Y-3569000D03*
X289782222Y-2019000D03*
%TD*%
D10*
%TO.C,D55*%
X54037500Y-71437500D03*
X50737500Y-71437500D03*
%TD*%
%TO.C,D18*%
X363600000Y-14287500D03*
X360300000Y-14287500D03*
%TD*%
D18*
%TO.C,RESET1*%
X169749972Y-76200000D03*
X173149972Y-76200000D03*
%TD*%
D10*
%TO.C,D2*%
X30225000Y-14287500D03*
X26925000Y-14287500D03*
%TD*%
%TO.C,D66*%
X282637500Y-76200000D03*
X279337500Y-76200000D03*
%TD*%
%TO.C,D19*%
X15937500Y-33337500D03*
X12637500Y-33337500D03*
%TD*%
%TO.C,D67*%
X306450000Y-71437500D03*
X303150000Y-71437500D03*
%TD*%
%TO.C,D59*%
X130237500Y-71437500D03*
X126937500Y-71437500D03*
%TD*%
%TO.C,D79*%
X282637500Y-95250000D03*
X279337500Y-95250000D03*
%TD*%
M02*
