%TF.GenerationSoftware,KiCad,Pcbnew,(6.0.0-rc1-343-g73b39e836d)*%
%TF.CreationDate,2021-12-12T21:31:48-07:00*%
%TF.ProjectId,Z18,5a31382e-6b69-4636-9164-5f7063625858,rev?*%
%TF.SameCoordinates,PX17f2fb4PY122ae10*%
%TF.FileFunction,Soldermask,Top*%
%TF.FilePolarity,Negative*%
%FSLAX46Y46*%
G04 Gerber Fmt 4.6, Leading zero omitted, Abs format (unit mm)*
G04 Created by KiCad (PCBNEW (6.0.0-rc1-343-g73b39e836d)) date 2021-12-12 21:31:48*
%MOMM*%
%LPD*%
G01*
G04 APERTURE LIST*
G04 Aperture macros list*
%AMRoundRect*
0 Rectangle with rounded corners*
0 $1 Rounding radius*
0 $2 $3 $4 $5 $6 $7 $8 $9 X,Y pos of 4 corners*
0 Add a 4 corners polygon primitive as box body*
4,1,4,$2,$3,$4,$5,$6,$7,$8,$9,$2,$3,0*
0 Add four circle primitives for the rounded corners*
1,1,$1+$1,$2,$3*
1,1,$1+$1,$4,$5*
1,1,$1+$1,$6,$7*
1,1,$1+$1,$8,$9*
0 Add four rect primitives between the rounded corners*
20,1,$1+$1,$2,$3,$4,$5,0*
20,1,$1+$1,$4,$5,$6,$7,0*
20,1,$1+$1,$6,$7,$8,$9,0*
20,1,$1+$1,$8,$9,$2,$3,0*%
G04 Aperture macros list end*
%ADD10C,1.524000*%
%ADD11C,1.700000*%
%ADD12C,2.200000*%
%ADD13C,4.300000*%
%ADD14RoundRect,0.200000X0.200000X0.275000X-0.200000X0.275000X-0.200000X-0.275000X0.200000X-0.275000X0*%
%ADD15RoundRect,0.150000X0.150000X-0.512500X0.150000X0.512500X-0.150000X0.512500X-0.150000X-0.512500X0*%
%ADD16RoundRect,0.225000X0.225000X0.250000X-0.225000X0.250000X-0.225000X-0.250000X0.225000X-0.250000X0*%
%ADD17C,3.987800*%
%ADD18C,3.048000*%
%ADD19R,1.800000X1.000000*%
%ADD20RoundRect,0.218750X0.218750X0.256250X-0.218750X0.256250X-0.218750X-0.256250X0.218750X-0.256250X0*%
%ADD21R,1.700000X1.700000*%
%ADD22O,1.700000X1.700000*%
%ADD23RoundRect,0.150000X-0.150000X0.512500X-0.150000X-0.512500X0.150000X-0.512500X0.150000X0.512500X0*%
%ADD24RoundRect,0.150000X-0.512500X-0.150000X0.512500X-0.150000X0.512500X0.150000X-0.512500X0.150000X0*%
%ADD25RoundRect,0.100000X-0.300000X0.600000X-0.300000X-0.600000X0.300000X-0.600000X0.300000X0.600000X0*%
%ADD26RoundRect,0.100000X-0.600000X-0.300000X0.600000X-0.300000X0.600000X0.300000X-0.600000X0.300000X0*%
%ADD27RoundRect,0.100000X-0.500000X-0.300000X0.500000X-0.300000X0.500000X0.300000X-0.500000X0.300000X0*%
%ADD28RoundRect,0.100000X-0.300000X0.500000X-0.300000X-0.500000X0.300000X-0.500000X0.300000X0.500000X0*%
%ADD29R,1.550000X1.200000*%
%ADD30R,1.800000X1.200000*%
%ADD31R,0.600000X0.450000*%
%ADD32RoundRect,0.200000X-0.200000X-0.275000X0.200000X-0.275000X0.200000X0.275000X-0.200000X0.275000X0*%
%ADD33C,0.650000*%
%ADD34R,0.600000X1.450000*%
%ADD35R,0.300000X1.450000*%
%ADD36O,1.000000X2.100000*%
%ADD37O,1.000000X1.600000*%
%ADD38RoundRect,0.225000X-0.250000X0.225000X-0.250000X-0.225000X0.250000X-0.225000X0.250000X0.225000X0*%
%ADD39RoundRect,0.150000X0.587500X0.150000X-0.587500X0.150000X-0.587500X-0.150000X0.587500X-0.150000X0*%
%ADD40RoundRect,0.225000X0.250000X-0.225000X0.250000X0.225000X-0.250000X0.225000X-0.250000X-0.225000X0*%
%ADD41C,0.900000*%
G04 APERTURE END LIST*
D10*
%TO.C,SW65*%
X204787500Y-66675000D03*
D11*
X199707500Y-66675000D03*
X209867500Y-66675000D03*
D12*
X207327500Y-61595000D03*
X200977500Y-64135000D03*
%TD*%
D13*
%TO.C,H11*%
X133350000Y-19050000D03*
%TD*%
D14*
%TO.C,R7*%
X291450000Y-54525000D03*
X289800000Y-54525000D03*
%TD*%
D10*
%TO.C,SW71*%
X342900000Y-66675000D03*
D11*
X337820000Y-66675000D03*
X347980000Y-66675000D03*
D12*
X345440000Y-61595000D03*
X339090000Y-64135000D03*
%TD*%
D11*
%TO.C,SW35*%
X337820000Y-28575000D03*
X347980000Y-28575000D03*
D10*
X342900000Y-28575000D03*
D12*
X345440000Y-23495000D03*
X339090000Y-26035000D03*
%TD*%
D10*
%TO.C,SW22*%
X76200000Y-28575000D03*
D11*
X71120000Y-28575000D03*
X81280000Y-28575000D03*
D12*
X78740000Y-23495000D03*
X72390000Y-26035000D03*
%TD*%
D14*
%TO.C,R2*%
X177212500Y-88675000D03*
X175562500Y-88675000D03*
%TD*%
%TO.C,R4*%
X291337500Y-35718750D03*
X289687500Y-35718750D03*
%TD*%
D15*
%TO.C,U4*%
X289848222Y-12313500D03*
X290798222Y-12313500D03*
X291748222Y-12313500D03*
X291748222Y-10038500D03*
X290798222Y-10038500D03*
X289848222Y-10038500D03*
%TD*%
D16*
%TO.C,C3*%
X291287500Y-40798750D03*
X289737500Y-40798750D03*
%TD*%
D11*
%TO.C,SW2*%
X33655000Y-9525000D03*
X23495000Y-9525000D03*
D10*
X28575000Y-9525000D03*
D12*
X31115000Y-4445000D03*
X24765000Y-6985000D03*
%TD*%
D11*
%TO.C,SW77*%
X194945000Y-85725000D03*
X205105000Y-85725000D03*
D10*
X200025000Y-85725000D03*
D12*
X202565000Y-80645000D03*
X196215000Y-83185000D03*
%TD*%
D11*
%TO.C,SW10*%
X186055000Y-9525000D03*
D10*
X180975000Y-9525000D03*
D11*
X175895000Y-9525000D03*
D12*
X183515000Y-4445000D03*
X177165000Y-6985000D03*
%TD*%
D10*
%TO.C,SW38*%
X11906250Y-47625000D03*
D11*
X16986250Y-47625000D03*
X6826250Y-47625000D03*
D12*
X14446250Y-42545000D03*
X8096250Y-45085000D03*
%TD*%
D11*
%TO.C,SW70*%
X328930000Y-66675000D03*
D10*
X323850000Y-66675000D03*
D11*
X318770000Y-66675000D03*
D12*
X326390000Y-61595000D03*
X320040000Y-64135000D03*
%TD*%
D11*
%TO.C,SW61*%
X133667500Y-66675000D03*
X123507500Y-66675000D03*
D10*
X128587500Y-66675000D03*
D12*
X131127500Y-61595000D03*
X124777500Y-64135000D03*
%TD*%
D17*
%TO.C,SW56*%
X33369250Y-58420000D03*
D11*
X26511250Y-66675000D03*
D18*
X33369250Y-73660000D03*
D11*
X16351250Y-66675000D03*
D10*
X21431250Y-66675000D03*
D17*
X9493250Y-58420000D03*
D18*
X9493250Y-73660000D03*
D12*
X18891250Y-71755000D03*
X25241250Y-69215000D03*
%TD*%
D11*
%TO.C,SW66*%
X228917500Y-66675000D03*
X218757500Y-66675000D03*
D10*
X223837500Y-66675000D03*
D12*
X226377500Y-61595000D03*
X220027500Y-64135000D03*
%TD*%
D10*
%TO.C,SW55*%
X342900000Y-47625000D03*
D11*
X337820000Y-47625000D03*
X347980000Y-47625000D03*
D12*
X345440000Y-42545000D03*
X339090000Y-45085000D03*
%TD*%
D11*
%TO.C,SW28*%
X195580000Y-28575000D03*
X185420000Y-28575000D03*
D10*
X190500000Y-28575000D03*
D12*
X193040000Y-23495000D03*
X186690000Y-26035000D03*
%TD*%
D11*
%TO.C,SW9*%
X156845000Y-9525000D03*
D10*
X161925000Y-9525000D03*
D11*
X167005000Y-9525000D03*
D12*
X164465000Y-4445000D03*
X158115000Y-6985000D03*
%TD*%
D11*
%TO.C,SW45*%
X143192500Y-47625000D03*
D10*
X138112500Y-47625000D03*
D11*
X133032500Y-47625000D03*
D12*
X140652500Y-42545000D03*
X134302500Y-45085000D03*
%TD*%
D10*
%TO.C,SW63*%
X166687500Y-66675000D03*
D11*
X171767500Y-66675000D03*
X161607500Y-66675000D03*
D12*
X169227500Y-61595000D03*
X162877500Y-64135000D03*
%TD*%
D11*
%TO.C,SW29*%
X214630000Y-28575000D03*
X204470000Y-28575000D03*
D10*
X209550000Y-28575000D03*
D12*
X212090000Y-23495000D03*
X205740000Y-26035000D03*
%TD*%
D11*
%TO.C,SW17*%
X347980000Y-9525000D03*
D10*
X342900000Y-9525000D03*
D11*
X337820000Y-9525000D03*
D12*
X345440000Y-4445000D03*
X339090000Y-6985000D03*
%TD*%
D10*
%TO.C,SW3*%
X47625000Y-9525000D03*
D11*
X42545000Y-9525000D03*
X52705000Y-9525000D03*
D12*
X50165000Y-4445000D03*
X43815000Y-6985000D03*
%TD*%
D11*
%TO.C,SW69*%
X299720000Y-66675000D03*
X309880000Y-66675000D03*
D10*
X304800000Y-66675000D03*
D12*
X307340000Y-61595000D03*
X300990000Y-64135000D03*
%TD*%
D19*
%TO.C,Y1*%
X171640500Y-88729500D03*
X171640500Y-91229500D03*
%TD*%
D10*
%TO.C,SW11*%
X200025000Y-9525000D03*
D11*
X194945000Y-9525000D03*
X205105000Y-9525000D03*
D12*
X202565000Y-4445000D03*
X196215000Y-6985000D03*
%TD*%
D20*
%TO.C,D86*%
X291300000Y-26193750D03*
X289725000Y-26193750D03*
%TD*%
D11*
%TO.C,SW47*%
X181292500Y-47625000D03*
D10*
X176212500Y-47625000D03*
D11*
X171132500Y-47625000D03*
D12*
X178752500Y-42545000D03*
X172402500Y-45085000D03*
%TD*%
D10*
%TO.C,SW33*%
X304800000Y-28575000D03*
D11*
X309880000Y-28575000D03*
X299720000Y-28575000D03*
D12*
X307340000Y-23495000D03*
X300990000Y-26035000D03*
%TD*%
D21*
%TO.C,J5*%
X157162500Y-69373750D03*
D22*
X157162500Y-66833750D03*
X157162500Y-64293750D03*
X157162500Y-61753750D03*
%TD*%
D21*
%TO.C,J3*%
X86264722Y-87264500D03*
D22*
X86264722Y-81264500D03*
%TD*%
D23*
%TO.C,U3*%
X291343750Y-44143750D03*
X290393750Y-44143750D03*
X289443750Y-44143750D03*
X289443750Y-46418750D03*
X291343750Y-46418750D03*
%TD*%
D10*
%TO.C,SW68*%
X280987500Y-71437500D03*
D11*
X275907500Y-71437500D03*
X286067500Y-71437500D03*
D12*
X283527500Y-66357500D03*
X277177500Y-68897500D03*
%TD*%
D11*
%TO.C,SW42*%
X75882500Y-47625000D03*
X86042500Y-47625000D03*
D10*
X80962500Y-47625000D03*
D12*
X83502500Y-42545000D03*
X77152500Y-45085000D03*
%TD*%
D24*
%TO.C,U1*%
X289375000Y-37308750D03*
X289375000Y-38258750D03*
X289375000Y-39208750D03*
X291650000Y-39208750D03*
X291650000Y-37308750D03*
%TD*%
D11*
%TO.C,SW84*%
X337820000Y-85725000D03*
D10*
X342900000Y-85725000D03*
D11*
X347980000Y-85725000D03*
D12*
X345440000Y-80645000D03*
X339090000Y-83185000D03*
%TD*%
D11*
%TO.C,SW67*%
X244951250Y-66675000D03*
X255111250Y-66675000D03*
D10*
X250031250Y-66675000D03*
D12*
X252571250Y-61595000D03*
X246221250Y-64135000D03*
%TD*%
D25*
%TO.C,U2*%
X155466222Y-92106000D03*
X156736222Y-92106000D03*
X158006222Y-92106000D03*
X159276222Y-92106000D03*
X160546222Y-92106000D03*
X161816222Y-92106000D03*
X163086222Y-92106000D03*
X164356222Y-92106000D03*
X165626222Y-92106000D03*
X166896222Y-92106000D03*
D26*
X168996222Y-90546000D03*
D27*
X167396222Y-89916000D03*
D26*
X168996222Y-89276000D03*
D27*
X167396222Y-88646000D03*
D26*
X168996222Y-88006000D03*
D27*
X167396222Y-87376000D03*
D26*
X168996222Y-86736000D03*
D27*
X167396222Y-86106000D03*
D26*
X168996222Y-85466000D03*
D27*
X167396222Y-84836000D03*
D26*
X168996222Y-84196000D03*
D27*
X167396222Y-83566000D03*
D26*
X168996222Y-82926000D03*
D27*
X167396222Y-82296000D03*
D26*
X168996222Y-81656000D03*
D25*
X166896222Y-80106000D03*
X165626222Y-80106000D03*
D28*
X164991222Y-81706000D03*
D25*
X164356222Y-80106000D03*
D28*
X163721222Y-81706000D03*
D25*
X163086222Y-80106000D03*
D28*
X162451222Y-81706000D03*
D25*
X161816222Y-80106000D03*
D28*
X161181222Y-81706000D03*
D25*
X160546222Y-80106000D03*
D28*
X159911222Y-81706000D03*
D25*
X159276222Y-80106000D03*
D28*
X158641222Y-81706000D03*
D25*
X158006222Y-80106000D03*
D28*
X157371222Y-81706000D03*
D25*
X156736222Y-80106000D03*
D28*
X156101222Y-81706000D03*
D25*
X155466222Y-80106000D03*
%TD*%
D20*
%TO.C,D83*%
X291300000Y-30956250D03*
X289725000Y-30956250D03*
%TD*%
D13*
%TO.C,H3*%
X142875000Y-85725000D03*
%TD*%
D29*
%TO.C,J2*%
X85083500Y-85064500D03*
X85083500Y-83464500D03*
D30*
X88958500Y-86064500D03*
X88958500Y-82464500D03*
%TD*%
D13*
%TO.C,H5*%
X333375000Y-76200000D03*
%TD*%
D31*
%TO.C,D85*%
X289575000Y-52325000D03*
X291675000Y-52325000D03*
%TD*%
D11*
%TO.C,SW19*%
X19367500Y-28575000D03*
X9207500Y-28575000D03*
D10*
X14287500Y-28575000D03*
D12*
X16827500Y-23495000D03*
X10477500Y-26035000D03*
%TD*%
D10*
%TO.C,SW18*%
X361950000Y-9525000D03*
D11*
X367030000Y-9525000D03*
X356870000Y-9525000D03*
D12*
X364490000Y-4445000D03*
X358140000Y-6985000D03*
%TD*%
D14*
%TO.C,R9*%
X291337500Y-23812500D03*
X289687500Y-23812500D03*
%TD*%
D11*
%TO.C,SW76*%
X136048750Y-85725000D03*
D18*
X180968750Y-92710000D03*
D11*
X125888750Y-85725000D03*
D10*
X130968750Y-85725000D03*
D18*
X80968750Y-92710000D03*
D17*
X80968750Y-77470000D03*
X180968750Y-77470000D03*
D12*
X128428750Y-90805000D03*
X134778750Y-88265000D03*
%TD*%
D32*
%TO.C,R3*%
X175562500Y-86875000D03*
X177212500Y-86875000D03*
%TD*%
D33*
%TO.C,J4*%
X287622472Y-4981250D03*
X293402472Y-4981250D03*
D34*
X293762472Y-6426250D03*
X292962472Y-6426250D03*
D35*
X291762472Y-6426250D03*
X290762472Y-6426250D03*
X290262472Y-6426250D03*
X289262472Y-6426250D03*
D34*
X288062472Y-6426250D03*
X287262472Y-6426250D03*
X287262472Y-6426250D03*
X288062472Y-6426250D03*
D35*
X288762472Y-6426250D03*
X289762472Y-6426250D03*
X291262472Y-6426250D03*
X292262472Y-6426250D03*
D34*
X292962472Y-6426250D03*
X293762472Y-6426250D03*
D36*
X294832472Y-5511250D03*
D37*
X286192472Y-1331250D03*
X294832472Y-1331250D03*
D36*
X286192472Y-5511250D03*
%TD*%
D11*
%TO.C,SW23*%
X90170000Y-28575000D03*
X100330000Y-28575000D03*
D10*
X95250000Y-28575000D03*
D12*
X97790000Y-23495000D03*
X91440000Y-26035000D03*
%TD*%
D11*
%TO.C,SW85*%
X228282500Y-85725000D03*
X238442500Y-85725000D03*
D10*
X233362500Y-85725000D03*
D12*
X235902500Y-80645000D03*
X229552500Y-83185000D03*
%TD*%
D14*
%TO.C,R1*%
X291337500Y-33337500D03*
X289687500Y-33337500D03*
%TD*%
D11*
%TO.C,SW80*%
X267017500Y-90487500D03*
X256857500Y-90487500D03*
D10*
X261937500Y-90487500D03*
D12*
X264477500Y-85407500D03*
X258127500Y-87947500D03*
%TD*%
D38*
%TO.C,C1*%
X173787500Y-86475000D03*
X173787500Y-88025000D03*
%TD*%
D11*
%TO.C,SW44*%
X113982500Y-47625000D03*
D10*
X119062500Y-47625000D03*
D11*
X124142500Y-47625000D03*
D12*
X121602500Y-42545000D03*
X115252500Y-45085000D03*
%TD*%
D10*
%TO.C,SW16*%
X323850000Y-9525000D03*
D11*
X328930000Y-9525000D03*
X318770000Y-9525000D03*
D12*
X326390000Y-4445000D03*
X320040000Y-6985000D03*
%TD*%
D11*
%TO.C,SW43*%
X105092500Y-47625000D03*
D10*
X100012500Y-47625000D03*
D11*
X94932500Y-47625000D03*
D12*
X102552500Y-42545000D03*
X96202500Y-45085000D03*
%TD*%
D13*
%TO.C,H13*%
X233362500Y-76200000D03*
%TD*%
D10*
%TO.C,SW4*%
X66675000Y-9525000D03*
D11*
X71755000Y-9525000D03*
X61595000Y-9525000D03*
D12*
X69215000Y-4445000D03*
X62865000Y-6985000D03*
%TD*%
D13*
%TO.C,H1*%
X247650000Y-19050000D03*
%TD*%
D11*
%TO.C,SW82*%
X305117500Y-90487500D03*
D10*
X300037500Y-90487500D03*
D11*
X294957500Y-90487500D03*
D12*
X302577500Y-85407500D03*
X296227500Y-87947500D03*
%TD*%
D11*
%TO.C,SW62*%
X142557500Y-66675000D03*
X152717500Y-66675000D03*
D10*
X147637500Y-66675000D03*
D12*
X150177500Y-61595000D03*
X143827500Y-64135000D03*
%TD*%
D11*
%TO.C,SW50*%
X238442500Y-47625000D03*
D10*
X233362500Y-47625000D03*
D11*
X228282500Y-47625000D03*
D12*
X235902500Y-42545000D03*
X229552500Y-45085000D03*
%TD*%
D11*
%TO.C,SW21*%
X52070000Y-28575000D03*
D10*
X57150000Y-28575000D03*
D11*
X62230000Y-28575000D03*
D12*
X59690000Y-23495000D03*
X53340000Y-26035000D03*
%TD*%
D11*
%TO.C,SW73*%
X6826250Y-85725000D03*
D10*
X11906250Y-85725000D03*
D11*
X16986250Y-85725000D03*
D12*
X14446250Y-80645000D03*
X8096250Y-83185000D03*
%TD*%
D11*
%TO.C,SW20*%
X33020000Y-28575000D03*
D10*
X38100000Y-28575000D03*
D11*
X43180000Y-28575000D03*
D12*
X40640000Y-23495000D03*
X34290000Y-26035000D03*
%TD*%
D11*
%TO.C,SW5*%
X90805000Y-9525000D03*
D10*
X85725000Y-9525000D03*
D11*
X80645000Y-9525000D03*
D12*
X88265000Y-4445000D03*
X81915000Y-6985000D03*
%TD*%
D11*
%TO.C,SW36*%
X361950000Y-33020000D03*
D10*
X361950000Y-38100000D03*
D18*
X368935000Y-26162000D03*
D17*
X353695000Y-26162000D03*
D18*
X368935000Y-50038000D03*
D11*
X361950000Y-43180000D03*
D17*
X354330000Y-50038000D03*
D12*
X367030000Y-40640000D03*
X364490000Y-34290000D03*
%TD*%
D10*
%TO.C,SW1*%
X9525000Y-9525000D03*
D11*
X14605000Y-9525000D03*
X4445000Y-9525000D03*
D12*
X12065000Y-4445000D03*
X5715000Y-6985000D03*
%TD*%
D10*
%TO.C,SW27*%
X171450000Y-28575000D03*
D11*
X176530000Y-28575000D03*
X166370000Y-28575000D03*
D12*
X173990000Y-23495000D03*
X167640000Y-26035000D03*
%TD*%
D11*
%TO.C,SW8*%
X147955000Y-9525000D03*
X137795000Y-9525000D03*
D10*
X142875000Y-9525000D03*
D12*
X145415000Y-4445000D03*
X139065000Y-6985000D03*
%TD*%
D11*
%TO.C,SW6*%
X109855000Y-9525000D03*
X99695000Y-9525000D03*
D10*
X104775000Y-9525000D03*
D12*
X107315000Y-4445000D03*
X100965000Y-6985000D03*
%TD*%
D11*
%TO.C,SW41*%
X56832500Y-47625000D03*
X66992500Y-47625000D03*
D10*
X61912500Y-47625000D03*
D12*
X64452500Y-42545000D03*
X58102500Y-45085000D03*
%TD*%
D11*
%TO.C,SW52*%
X269398750Y-47625000D03*
D17*
X276256750Y-55880000D03*
X252380750Y-55880000D03*
D10*
X264318750Y-47625000D03*
D18*
X276256750Y-40640000D03*
D11*
X259238750Y-47625000D03*
D18*
X252380750Y-40640000D03*
D12*
X266858750Y-42545000D03*
X260508750Y-45085000D03*
%TD*%
D10*
%TO.C,SW57*%
X52387500Y-66675000D03*
D11*
X57467500Y-66675000D03*
X47307500Y-66675000D03*
D12*
X54927500Y-61595000D03*
X48577500Y-64135000D03*
%TD*%
D13*
%TO.C,H9*%
X19050000Y-19050000D03*
%TD*%
D10*
%TO.C,SW54*%
X323850000Y-47625000D03*
D11*
X318770000Y-47625000D03*
X328930000Y-47625000D03*
D12*
X326390000Y-42545000D03*
X320040000Y-45085000D03*
%TD*%
D13*
%TO.C,H7*%
X23812500Y-76200000D03*
%TD*%
D11*
%TO.C,SW75*%
X64611250Y-85725000D03*
X54451250Y-85725000D03*
D10*
X59531250Y-85725000D03*
D12*
X62071250Y-80645000D03*
X55721250Y-83185000D03*
%TD*%
D39*
%TO.C,Q1*%
X291449997Y-50475000D03*
X291449997Y-48575000D03*
X289574997Y-49525000D03*
%TD*%
D10*
%TO.C,SW13*%
X238125000Y-9525000D03*
D11*
X233045000Y-9525000D03*
X243205000Y-9525000D03*
D12*
X240665000Y-4445000D03*
X234315000Y-6985000D03*
%TD*%
D10*
%TO.C,SW24*%
X114300000Y-28575000D03*
D11*
X119380000Y-28575000D03*
X109220000Y-28575000D03*
D12*
X116840000Y-23495000D03*
X110490000Y-26035000D03*
%TD*%
D11*
%TO.C,SW32*%
X276542500Y-28575000D03*
D10*
X271462500Y-28575000D03*
D11*
X266382500Y-28575000D03*
D12*
X274002500Y-23495000D03*
X267652500Y-26035000D03*
%TD*%
D11*
%TO.C,SW74*%
X40798750Y-85725000D03*
D10*
X35718750Y-85725000D03*
D11*
X30638750Y-85725000D03*
D12*
X38258750Y-80645000D03*
X31908750Y-83185000D03*
%TD*%
D11*
%TO.C,SW72*%
X361950000Y-71120000D03*
X361950000Y-81280000D03*
D10*
X361950000Y-76200000D03*
D17*
X354330000Y-88138000D03*
D18*
X368935000Y-88138000D03*
D17*
X353695000Y-64262000D03*
D18*
X368935000Y-64262000D03*
D12*
X367030000Y-78740000D03*
X364490000Y-72390000D03*
%TD*%
D11*
%TO.C,SW30*%
X223520000Y-28575000D03*
X233680000Y-28575000D03*
D10*
X228600000Y-28575000D03*
D12*
X231140000Y-23495000D03*
X224790000Y-26035000D03*
%TD*%
D11*
%TO.C,SW7*%
X118745000Y-9525000D03*
X128905000Y-9525000D03*
D10*
X123825000Y-9525000D03*
D12*
X126365000Y-4445000D03*
X120015000Y-6985000D03*
%TD*%
D10*
%TO.C,SW26*%
X152400000Y-28575000D03*
D11*
X147320000Y-28575000D03*
X157480000Y-28575000D03*
D12*
X154940000Y-23495000D03*
X148590000Y-26035000D03*
%TD*%
D10*
%TO.C,SW79*%
X238125000Y-85725000D03*
D11*
X233045000Y-85725000D03*
X243205000Y-85725000D03*
D12*
X240665000Y-80645000D03*
X234315000Y-83185000D03*
%TD*%
D40*
%TO.C,C4*%
X292893750Y-46018750D03*
X292893750Y-44468750D03*
%TD*%
D11*
%TO.C,SW12*%
X224155000Y-9525000D03*
D10*
X219075000Y-9525000D03*
D11*
X213995000Y-9525000D03*
D12*
X221615000Y-4445000D03*
X215265000Y-6985000D03*
%TD*%
D38*
%TO.C,C2*%
X173787500Y-89475000D03*
X173787500Y-91025000D03*
%TD*%
D11*
%TO.C,SW78*%
X224155000Y-85725000D03*
X213995000Y-85725000D03*
D10*
X219075000Y-85725000D03*
D12*
X221615000Y-80645000D03*
X215265000Y-83185000D03*
%TD*%
D11*
%TO.C,SW58*%
X76517500Y-66675000D03*
D10*
X71437500Y-66675000D03*
D11*
X66357500Y-66675000D03*
D12*
X73977500Y-61595000D03*
X67627500Y-64135000D03*
%TD*%
D11*
%TO.C,SW31*%
X252730000Y-28575000D03*
D10*
X247650000Y-28575000D03*
D11*
X242570000Y-28575000D03*
D12*
X250190000Y-23495000D03*
X243840000Y-26035000D03*
%TD*%
D10*
%TO.C,SW60*%
X109537500Y-66675000D03*
D11*
X104457500Y-66675000D03*
X114617500Y-66675000D03*
D12*
X112077500Y-61595000D03*
X105727500Y-64135000D03*
%TD*%
D13*
%TO.C,H10*%
X333375000Y-19050000D03*
%TD*%
D11*
%TO.C,SW34*%
X328930000Y-28575000D03*
D10*
X323850000Y-28575000D03*
D11*
X318770000Y-28575000D03*
D12*
X326390000Y-23495000D03*
X320040000Y-26035000D03*
%TD*%
D11*
%TO.C,SW46*%
X162242500Y-47625000D03*
X152082500Y-47625000D03*
D10*
X157162500Y-47625000D03*
D12*
X159702500Y-42545000D03*
X153352500Y-45085000D03*
%TD*%
D10*
%TO.C,SW48*%
X195262500Y-47625000D03*
D11*
X200342500Y-47625000D03*
X190182500Y-47625000D03*
D12*
X197802500Y-42545000D03*
X191452500Y-45085000D03*
%TD*%
D11*
%TO.C,SW25*%
X138430000Y-28575000D03*
D10*
X133350000Y-28575000D03*
D11*
X128270000Y-28575000D03*
D12*
X135890000Y-23495000D03*
X129540000Y-26035000D03*
%TD*%
D10*
%TO.C,SW64*%
X185737500Y-66675000D03*
D11*
X190817500Y-66675000D03*
X180657500Y-66675000D03*
D12*
X188277500Y-61595000D03*
X181927500Y-64135000D03*
%TD*%
D10*
%TO.C,SW15*%
X304800000Y-9525000D03*
D11*
X309880000Y-9525000D03*
X299720000Y-9525000D03*
D12*
X307340000Y-4445000D03*
X300990000Y-6985000D03*
%TD*%
D10*
%TO.C,SW81*%
X280987500Y-90487500D03*
D11*
X286067500Y-90487500D03*
X275907500Y-90487500D03*
D12*
X283527500Y-85407500D03*
X277177500Y-87947500D03*
%TD*%
D10*
%TO.C,SW53*%
X304800000Y-47625000D03*
D11*
X309880000Y-47625000D03*
X299720000Y-47625000D03*
D12*
X307340000Y-42545000D03*
X300990000Y-45085000D03*
%TD*%
D10*
%TO.C,SW89*%
X204787500Y-85725000D03*
D11*
X209867500Y-85725000D03*
X199707500Y-85725000D03*
D12*
X207327500Y-80645000D03*
X200977500Y-83185000D03*
%TD*%
D10*
%TO.C,SW83*%
X323850000Y-85725000D03*
D11*
X318770000Y-85725000D03*
X328930000Y-85725000D03*
D12*
X326390000Y-80645000D03*
X320040000Y-83185000D03*
%TD*%
D10*
%TO.C,SW39*%
X16668750Y-47625000D03*
D11*
X11588750Y-47625000D03*
X21748750Y-47625000D03*
D12*
X19208750Y-42545000D03*
X12858750Y-45085000D03*
%TD*%
D18*
%TO.C,SW14*%
X278638000Y-2540000D03*
D11*
X261620000Y-9525000D03*
X271780000Y-9525000D03*
D18*
X254762000Y-2540000D03*
D17*
X278638000Y-17145000D03*
X254762000Y-17780000D03*
D10*
X266700000Y-9525000D03*
D12*
X269240000Y-4445000D03*
X262890000Y-6985000D03*
%TD*%
D11*
%TO.C,SW40*%
X37782500Y-47625000D03*
X47942500Y-47625000D03*
D10*
X42862500Y-47625000D03*
D12*
X45402500Y-42545000D03*
X39052500Y-45085000D03*
%TD*%
D11*
%TO.C,SW59*%
X95567500Y-66675000D03*
D10*
X90487500Y-66675000D03*
D11*
X85407500Y-66675000D03*
D12*
X93027500Y-61595000D03*
X86677500Y-64135000D03*
%TD*%
D11*
%TO.C,SW49*%
X219392500Y-47625000D03*
D10*
X214312500Y-47625000D03*
D11*
X209232500Y-47625000D03*
D12*
X216852500Y-42545000D03*
X210502500Y-45085000D03*
%TD*%
D41*
%TO.C,BATT1*%
X294470997Y-73588750D03*
X294470997Y-76588750D03*
%TD*%
M02*
